# xmcd
#
# Track frame offsets:
# 150
# 23766
# 44068
# 62522
# 82965
# 100472
# 122123
# 145251
# 162620
# 183475
# 202599
# 219999
# 240038
# 259269
# 292727
#
# Disc length: 4216 seconds
#
#
# Revision: 0
# Processed by: cddbd v1.5.1PL0 Copyright (c) Steve Scherf et al.
# Submitted via: FreeRIP 2.931 
#
DISCID=cc10760f
DTITLE=Ning Baizura - Erti Pertemuan
DYEAR=2004
DGENRE=Pop
TTITLE0=Awan Yang Terpilu
TTITLE1=Erti Pertemuan (duet bersama J.Jay)
TTITLE2=Bukan Sebarangan
TTITLE3=Bebaskan
TTITLE4=Takdir
TTITLE5=Menu Minggu Ini
TTITLE6=Senang Tari (lagu tema pendek 'Pua')
TTITLE7=Bersama
TTITLE8=Ini Yang Dikata Cinta
TTITLE9=Dikau
TTITLE10=Breathe Again
TTITLE11=Kepulangan Yant Terindah
TTITLE12=Bebaskan (Quiet Storm Mix)
TTITLE13=Bebaskan (Classic Club Mix)
TTITLE14=Awan Yang Terpilu (Minus One)
EXTD=Test
EXTT0=
EXTT1=
EXTT2=
EXTT3=
EXTT4=
EXTT5=
EXTT6=
EXTT7=
EXTT8=
EXTT9=
EXTT10=
EXTT11=
EXTT12=
EXTT13=
EXTT14=
PLAYORDER=
